<?xml version="1.0" encoding="UTF-8"?>
<svg xmlns="http://www.w3.org/2000/svg" id="Layer_1" data-name="Layer 1" viewBox="0 0 512 512" width="512" height="512"><path d="M67,220.464a6,6,0,0,0,6-6V122.2a6,6,0,1,0-12,0v92.266A6,6,0,0,0,67,220.464Z"/><path d="M67,109.381a6,6,0,0,0,6-6v-4.92a6,6,0,0,0-12,0v4.92A6,6,0,0,0,67,109.381Z"/><path d="M467.731,251.485l-5.773-8.879h0a25.928,25.928,0,0,0-35.708-7.339L408,247.1V72.835C408,58.715,397,47,382.877,47H265.359a41.288,41.288,0,0,0-82.233,0H65.608A25.832,25.832,0,0,0,40,72.835V476.7A25.38,25.38,0,0,0,65.608,502H382.877A24.969,24.969,0,0,0,408,476.7v-155.6l52.209-34.144a25.584,25.584,0,0,0,7.522-35.465Zm-46.185,1.391,7.1,10.8-203.1,133.448-7.095-10.8ZM227.161,421.439l-33.781,4,17.074-29.421,8.352,12.711v0h0Zm12.3-155.259a24.976,24.976,0,0,0-17.88-7.18h-.04A25.416,25.416,0,0,0,196,284.33v10.889a27.732,27.732,0,0,1-9.543,21.087,9.28,9.28,0,0,1-6.009,2.223A8.379,8.379,0,0,1,172,310.36V290.343c0-17.644-3-34.078-9.743-49.86l-1.1-2.812a116.7,116.7,0,0,1-10.129-40.97,29.6,29.6,0,0,1,9.49-23.727,30.216,30.216,0,0,1,28.466-6.634l13.54,3.7a73.941,73.941,0,0,0,38.933.009l14.185-3.867a29.416,29.416,0,0,1,27.489,6.517h0a29.572,29.572,0,0,1,9.783,24.007,111.091,111.091,0,0,1-9.735,40.01l-1.027,2.627C274.5,256.768,271,273.318,271,290.343V310.36a8.1,8.1,0,0,1-8.115,8.169,8.789,8.789,0,0,1-5.844-2.223A28.071,28.071,0,0,1,247,295.219V284.225A25.162,25.162,0,0,0,239.459,266.18ZM160,290.343V310.36a20.436,20.436,0,0,0,20.5,20.169,20.706,20.706,0,0,0,13.689-5.139A39.824,39.824,0,0,0,208,295.219V284.33A13.406,13.406,0,0,1,221.558,271h.021a13.062,13.062,0,0,1,9.4,3.672,13.238,13.238,0,0,1,4.02,9.553v10.994a39.988,39.988,0,0,0,14.133,30.172,20.959,20.959,0,0,0,13.765,5.138A20.2,20.2,0,0,0,283,310.36V290.343a104.574,104.574,0,0,1,2.255-20.969c8.54.734,16.745,1.613,25.745,2.644v39.129L265.566,341H133V272.018c9-1.011,16.79-1.876,25.163-2.6A119.284,119.284,0,0,1,160,290.343ZM266,59H382.877C390.381,59,396,65.332,396,72.835V254.983l-33,22V103.034A16.012,16.012,0,0,0,347.205,87H308V72.64A5.5,5.5,0,0,0,302.247,67H266ZM188.947,79A6.363,6.363,0,0,0,195,72.64V50.992a29.5,29.5,0,0,1,59,0V72.64c0,3.313,2.225,6.36,5.539,6.36H296v31H152V79ZM396,476.7A13.305,13.305,0,0,1,382.7,490H65.608A13.609,13.609,0,0,1,52,476.392V72.835A13.876,13.876,0,0,1,65.835,59H183v8H146.239A6.257,6.257,0,0,0,140,73.239V87H101.281A16.328,16.328,0,0,0,85,103.281V144a6,6,0,0,0,6,6h0a6,6,0,0,0,6-6V103.034A4.045,4.045,0,0,1,101.034,99H140v16.7a6.319,6.319,0,0,0,6.3,6.3H302.247A5.753,5.753,0,0,0,308,116.247V99h38.966A4.045,4.045,0,0,1,351,103.034V284.863l-28,18.4V266.72a5.973,5.973,0,0,0-5.219-5.918c-9.79-1.261-19.839-2.33-29.718-3.205a131.346,131.346,0,0,1,5.575-14.7c.054-.121.353-.863.4-.987a126.582,126.582,0,0,0,10.873-44.45A41.6,41.6,0,0,0,252.493,154.6l-14.187,3.867a61.907,61.907,0,0,1-32.608-.008l-14.158-3.869a41.593,41.593,0,0,0-52.432,42.86A128.973,128.973,0,0,0,150.1,242.1c.062.181.132.361.212.538a114.847,114.847,0,0,1,5.546,14.974c-9.814.873-19.926,1.936-29.651,3.19A5.965,5.965,0,0,0,121,266.72v79.785a6.514,6.514,0,0,0,6.5,6.5H247.3L208,378.829a11.815,11.815,0,0,0-3.734,3.948l-27.186,46.846a6.2,6.2,0,0,0-.607,5.061,6,6,0,0,0,6.405,4.075l53.968-6.38a11.814,11.814,0,0,0,5.1-1.86L351,358.859V395H299.834A5.834,5.834,0,0,0,294,400.834V451H100.5a3.5,3.5,0,0,1-3.5-3.5V186a6,6,0,0,0-6-6h0a6,6,0,0,0-6,6V447.5A15.5,15.5,0,0,0,100.5,463H296.039a17.51,17.51,0,0,0,12.562-5.053l49.2-49.13A17.47,17.47,0,0,0,363,396.33V350.975l33-22ZM342.768,407,306,443.893V407ZM239.227,417.949l-7.1-10.8L435.23,273.7l7.095,10.8ZM453.862,276.92l-1.508.991-20.779-31.625,1.508-.99a13.624,13.624,0,0,1,18.846,3.9h0l5.833,8.879A13.622,13.622,0,0,1,453.862,276.92Z"/></svg>
