<?xml version="1.0" encoding="UTF-8"?>
<svg xmlns="http://www.w3.org/2000/svg" id="Layer_1" data-name="Layer 1" viewBox="0 0 512 512" width="512" height="512"><path d="M48,165.7a6,6,0,0,0-6,6v6.556a6,6,0,0,0,12,0V171.7A6,6,0,0,0,48,165.7Z"/><path d="M48,196.2a6,6,0,0,0-6,6V319.865a6,6,0,0,0,12,0V202.2A6,6,0,0,0,48,196.2Z"/><path d="M274.157,189.822a41.9,41.9,0,0,0-39.179-9.291l-14.408,3.93a62.9,62.9,0,0,1-33.149-.007l-14.374-3.933a42.144,42.144,0,0,0-53.113,43.454,131.031,131.031,0,0,0,11.149,45.34c.063.183.738,1.673.818,1.852A109.722,109.722,0,0,1,142,318.375v20.342a20.294,20.294,0,0,0,20.292,20.4,20.773,20.773,0,0,0,13.781-5.2A40.337,40.337,0,0,0,190,323.331V312.266c0-7.727,6.021-14.266,13.541-14.266h.021a13.312,13.312,0,0,1,9.462,4.063,14.154,14.154,0,0,1,3.976,10.1v11.173a40.694,40.694,0,0,0,14.452,30.585,21.581,21.581,0,0,0,14.075,5.2A20.559,20.559,0,0,0,266,338.717V318.375a109.777,109.777,0,0,1,10.25-47.292c.055-.122.652-1.472.7-1.6a130.844,130.844,0,0,0,11.157-45.51A42.122,42.122,0,0,0,274.157,189.822Zm1.917,33.405a118.725,118.725,0,0,1-10.332,41.666c-.039.084-.233.583-.4,1.019-.186.483-.388.964-.6,1.438A120.952,120.952,0,0,0,254,318.375v20.342a8.4,8.4,0,0,1-8.417,8.4,9.463,9.463,0,0,1-6.173-2.281c-6.474-5.593-10.41-13.431-10.41-21.5V312.158a26.069,26.069,0,0,0-7.5-18.586A25.223,25.223,0,0,0,203.563,286h-.041C189.4,286,178,297.932,178,312.266v11.065a28.441,28.441,0,0,1-9.879,21.5,8.6,8.6,0,0,1-5.805,2.281,8.3,8.3,0,0,1-8.316-8.4V318.375a125.6,125.6,0,0,0-10.948-52.089c-.07-.209-.6-1.191-.691-1.393a118.872,118.872,0,0,1-10.4-41.67A30.106,30.106,0,0,1,169.891,192.1l14.367,3.932a74.861,74.861,0,0,0,39.471.009l14.4-3.93a30.142,30.142,0,0,1,37.949,31.12Z"/><path d="M445.535,343.817,374.17,413.564l-37.746-36.89a6,6,0,1,0-8.387,8.582l41.939,40.989a6,6,0,0,0,8.388,0L453.922,352.4a6,6,0,1,0-8.387-8.582Z"/><path d="M397,275.07V101.926A40.565,40.565,0,0,0,356.5,61H340V47.937A30.771,30.771,0,0,0,309.168,17h-2.925A31.122,31.122,0,0,0,275,47.937V61H133V47.937A30.718,30.718,0,0,0,102.231,17H99.306A31.177,31.177,0,0,0,68,47.937V61H51.978A40.968,40.968,0,0,0,11,101.926V379.987A41.042,41.042,0,0,0,51.978,421H286.991a110.217,110.217,0,0,0,103.988,74.159c60.666,0,110.021-49.4,110.021-110.128A110.219,110.219,0,0,0,397,275.07ZM287,48.1A19.1,19.1,0,0,1,306.1,29H308.9A19.1,19.1,0,0,1,328,48.1V72.9A19.1,19.1,0,0,1,308.9,92H306.1A19.1,19.1,0,0,1,287,72.9Zm-207,0A19.1,19.1,0,0,1,99.1,29H101.9A19.1,19.1,0,0,1,121,48.1V72.9A19.1,19.1,0,0,1,101.9,92H99.1A19.1,19.1,0,0,1,80,72.9Zm-57,53.83A28.954,28.954,0,0,1,51.978,73H68.217a31.286,31.286,0,0,0,31.089,31h2.925A31.286,31.286,0,0,0,133.32,73H275.153a31.287,31.287,0,0,0,31.09,31h2.925a31.286,31.286,0,0,0,31.089-31H356.5A28.552,28.552,0,0,1,385,101.926V132H23ZM390.979,483.159A98.132,98.132,0,0,1,300.45,347.423a5.992,5.992,0,0,0-1.286-6.546l-.007-.007a6,6,0,0,0-9.784,1.936A110.264,110.264,0,0,0,283.591,409H51.978A29.029,29.029,0,0,1,23,379.987V144H385V275.067a109.6,109.6,0,0,0-70.071,30.466,6.008,6.008,0,0,0-.1,8.585h0a5.984,5.984,0,0,0,8.373.1,98.054,98.054,0,1,1,67.775,168.946Z"/></svg>
