<?xml version="1.0" encoding="UTF-8"?>
<svg xmlns="http://www.w3.org/2000/svg" id="Layer_1" data-name="Layer 1" viewBox="0 0 512 512" width="512" height="512"><path d="M218.036,289h2.306a6,6,0,0,0,0-12h-2.306a6,6,0,0,0,0,12Z"/><path d="M260.788,277H243.36a6,6,0,0,0,0,12h17.428a6,6,0,0,0,0-12Z"/><path d="M409.106,277H284.18a6,6,0,0,0,0,12H409.106a6,6,0,0,0,0-12Z"/><path d="M218.036,239h2.306a6,6,0,0,0,0-12h-2.306a6,6,0,0,0,0,12Z"/><path d="M260.788,227H243.36a6,6,0,0,0,0,12h17.428a6,6,0,0,0,0-12Z"/><path d="M409.106,227H284.18a6,6,0,0,0,0,12H409.106a6,6,0,0,0,0-12Z"/><path d="M218.036,190h2.306a6,6,0,0,0,0-12h-2.306a6,6,0,0,0,0,12Z"/><path d="M260.788,178H243.36a6,6,0,0,0,0,12h17.428a6,6,0,0,0,0-12Z"/><path d="M409.106,178H284.18a6,6,0,0,0,0,12H409.106a6,6,0,0,0,0-12Z"/><path d="M218.036,338h2.306a6,6,0,0,0,0-12h-2.306a6,6,0,0,0,0,12Z"/><path d="M260.788,326H243.36a6,6,0,0,0,0,12h17.428a6,6,0,0,0,0-12Z"/><path d="M409.106,326H284.18a6,6,0,0,0,0,12H409.106a6,6,0,0,0,0-12Z"/><path d="M232.711,391.326a8.66,8.66,0,0,1,8.645,8.663,6,6,0,0,0,6,6,6.132,6.132,0,0,0,6.152-6A21.159,21.159,0,0,0,239,380.222V377.27a6,6,0,0,0-12,0v2.952a20.2,20.2,0,0,0-14.81,19.767,20.617,20.617,0,0,0,20.579,20.663,8.661,8.661,0,0,1,.024,17.321c-.034,0-.067,0-.1,0s-.067,0-.1,0a8.666,8.666,0,0,1-8.554-8.658,6,6,0,0,0-6-6,5.871,5.871,0,0,0-5.846,6A20.2,20.2,0,0,0,227,449.083v3.62a6,6,0,0,0,12,0v-3.62a21.157,21.157,0,0,0,14.5-19.768,20.749,20.749,0,0,0-20.732-20.663,8.663,8.663,0,1,1-.058-17.326Z"/><path d="M409.106,425H397.873a6,6,0,0,0,0,12h11.233a6,6,0,0,0,0-12Z"/><path d="M376.737,425H344.472a6,6,0,0,0,0,12h32.265a6,6,0,1,0,0-12Z"/><path d="M323.583,425H279.837a6,6,0,0,0,0,12h43.746a6,6,0,1,0,0-12Z"/><path d="M110,222.2a6,6,0,0,0-6,6v62.266a6,6,0,0,0,12,0V228.2A6,6,0,0,0,110,222.2Z"/><path d="M110,198.461a6,6,0,0,0-6,6v4.92a6,6,0,0,0,12,0v-4.92A6,6,0,0,0,110,198.461Z"/><path d="M403.271,82H245.048A92.048,92.048,0,1,0,81,157.24V325.5a6.055,6.055,0,0,0,9.108,5.172L107.255,320.6a13.687,13.687,0,0,1,14.867.653l1.737,1.237a25.792,25.792,0,0,0,29.208.416,14.024,14.024,0,0,1,17.454,1.635L179,332.705V495a5.721,5.721,0,0,0,8.455,5.311l16.083-8.488a28.582,28.582,0,0,1,26.646.009,40.6,40.6,0,0,0,37.816,0c.012-.006.018-.013.03-.019a28.623,28.623,0,0,1,26.632.014l.038.022a40.633,40.633,0,0,0,37.764,0l.042-.023a28.634,28.634,0,0,1,26.662,0l.036.019a40.627,40.627,0,0,0,37.807-.017,28.63,28.63,0,0,1,26.664,0L439.8,500.31a6,6,0,0,0,2.794.69,6.735,6.735,0,0,0,3.305-.864A6.2,6.2,0,0,0,449,495V127.156C449,102.155,428.262,82,403.271,82ZM78.942,126.691a80.042,80.042,0,1,1,152.982.127l-40.4-10.539a64.68,64.68,0,0,1,4-11.545c.039-.088.076-.175.11-.263a70.318,70.318,0,0,0,5.99-24.365,24.562,24.562,0,0,0-8.124-19.924h0a24.455,24.455,0,0,0-22.868-5.425l-7.412,2.024a29.437,29.437,0,0,1-15.521,0l-7.4-2.025a24.6,24.6,0,0,0-31.008,25.355,70.387,70.387,0,0,0,5.941,24.236c.047.132.1.261.159.39a56.428,56.428,0,0,1,3.788,11.537ZM166.4,113.714A15.576,15.576,0,0,0,155.231,109h-.016A16.371,16.371,0,0,0,139,125.361v5.7a11.651,11.651,0,0,1-4,8.864,2.224,2.224,0,0,1-1.36.464,1.632,1.632,0,0,1-1.645-1.41V128.506a68.6,68.6,0,0,0-5.571-28.154l-.2-.583a58.131,58.131,0,0,1-5.014-20.414,12.638,12.638,0,0,1,15.9-13.028l7.4,2.025a41.466,41.466,0,0,0,21.853,0l7.411-2.023a12.507,12.507,0,0,1,11.691,2.776,12.634,12.634,0,0,1,4.168,10.248,58.179,58.179,0,0,1-5.058,20.411c-.05.11-.118.221-.162.333A68.708,68.708,0,0,0,178,128.506v10.468a1.313,1.313,0,0,1-1.282,1.41,2.033,2.033,0,0,1-1.322-.465,11.991,11.991,0,0,1-4.4-8.863v-5.75A16.123,16.123,0,0,0,166.4,113.714ZM83.362,137.941l36.843-9.6c0,.054-.2.107-.2.161v10.468a13.634,13.634,0,0,0,13.674,13.41A13.94,13.94,0,0,0,142.747,149,23.736,23.736,0,0,0,151,131.056v-5.7A4.361,4.361,0,0,1,155.225,121h0a3.668,3.668,0,0,1,2.7,1.206,4.23,4.23,0,0,1,1.074,3.1v5.75A23.969,23.969,0,0,0,167.561,149a13.776,13.776,0,0,0,9.07,3.386A13.427,13.427,0,0,0,190,138.974V128.506c0-.07.027-.139.027-.209l37.442,9.763a79.979,79.979,0,0,1-144.107-.119ZM437,485.064l-7.533-3.856a40.834,40.834,0,0,0-37.942,0,28.731,28.731,0,0,1-26.714,0c-.01-.005-.046-.011-.057-.016a40.652,40.652,0,0,0-37.788,0l-.046.02a28.637,28.637,0,0,1-26.666,0l-.035-.017a40.629,40.629,0,0,0-37.808.013l-.038.02a28.636,28.636,0,0,1-26.647-.022,40.179,40.179,0,0,0-37.6,0L191,485.065V258a6,6,0,0,0-6-6h0a6,6,0,0,0-6,6v57.837a26.1,26.1,0,0,0-32.4-2.9,13.914,13.914,0,0,1-15.662-.221l-1.79-1.238a25.817,25.817,0,0,0-27.988-1.227L93,315.013V170.749a91.874,91.874,0,0,0,86,21.457V216a6,6,0,0,0,6,6h0a6,6,0,0,0,6-6V188.115a92.275,92.275,0,0,0,56.5-84.981q0-4.623-.452-9.134H403.271C421.645,94,437,108.772,437,127.156Z"/></svg>
